<svg xmlns="http://www.w3.org/2000/svg" viewBox="0 0 24 24" width="24" height="24" fill="none" stroke="white" stroke-width="2" stroke-linecap="round" stroke-linejoin="round">
  <path d="M7 2c-1.5 0-3.37 1.4-3.84 3.25C2.87 6.25 3 7.5 3 9.5c0 2-.13 5.5-.16 5.75-.7.57-.45 1.23.15 1.65.7.47 1.39.1 1.73-.57.41-.8.93-2.17 1.13-2.5.3-.46.36-.68.52-.92.16-.24.35-.46.71-.46s.55.22.71.46c.16.24.22.46.52.92.2.33.72 1.7 1.13 2.5.34.67 1.03 1.04 1.73.57.6-.42.85-1.08.15-1.65-.03-.25-.16-3.75-.16-5.75 0-2 .13-3.25-.16-4.25C10.37 3.4 8.5 2 7 2z"/>
  <path d="M17 2c-1.5 0-3.37 1.4-3.84 3.25-.29 1-.16 2.25-.16 4.25 0 2-.13 5.5-.16 5.75-.7.57-.45 1.23.15 1.65.7.47 1.39.1 1.73-.57.41-.8.93-2.17 1.13-2.5.3-.46.36-.68.52-.92.16-.24.35-.46.71-.46s.55.22.71.46c.16.24.22.46.52.92.2.33.72 1.7 1.13 2.5.34.67 1.03 1.04 1.73.57.6-.42.85-1.08.15-1.65-.03-.25-.16-3.75-.16-5.75 0-2 .13-3.25-.16-4.25C20.37 3.4 18.5 2 17 2z"/>
</svg>